<svg width="1261" height="391" viewBox="0 0 1261 391" fill="none" xmlns="http://www.w3.org/2000/svg">
<path d="M113.473 200.429C114.129 196.487 114.621 192.379 115.441 188.437C118.229 174.801 123.312 162.151 131.839 150.979C141.842 138.165 154.796 129.787 170.046 124.529C181.361 120.587 193.003 118.451 204.81 117.794C222.355 116.808 239.901 117.465 257.119 121.408C265.482 123.215 273.517 126.172 280.404 131.429C289.423 138.329 293.85 147.694 294.342 159.029C294.342 160.837 294.342 162.808 294.342 164.615C294.506 166.751 293.522 167.408 291.391 167.408C286.963 167.244 282.372 167.408 277.944 167.408C264.826 167.408 251.708 167.408 238.589 167.408C236.458 167.408 235.474 166.915 235.31 164.615C234.49 157.715 230.226 153.772 223.667 152.129C214.812 149.994 205.957 150.158 197.103 152.787C186.772 155.908 179.393 162.644 174.637 172.172C170.702 180.222 168.242 188.929 168.242 197.965C168.078 212.587 174.146 220.472 188.576 223.429C198.742 225.401 208.909 225.237 218.748 220.965C224.159 218.665 229.734 213.244 231.538 208.479C230.554 208.479 229.734 208.315 228.915 208.315C223.831 208.315 218.748 208.315 213.501 208.315C211.533 208.315 210.877 207.658 211.369 205.687C213.173 197.472 214.812 189.258 216.452 181.044C216.944 178.908 217.928 178.251 219.896 178.251C242.361 178.251 264.99 178.251 287.455 178.251C290.571 178.251 290.735 178.415 290.079 181.372C285.487 204.044 280.732 226.715 276.141 249.387C275.321 253.165 275.321 253.165 271.549 253.165C266.302 253.165 261.218 253.001 255.971 253.165C253.675 253.165 252.528 252.508 252.036 250.208C251.38 247.415 250.396 244.622 249.412 241.501C248.428 242.158 247.608 242.487 246.952 242.979C235.474 251.029 222.847 255.465 208.909 256.287C197.595 257.108 186.116 257.437 174.801 257.108C162.503 256.779 150.533 254.644 139.218 249.387C123.968 242.158 114.949 230.329 113.145 213.408C113.145 212.751 112.817 211.929 112.653 211.272C113.473 207.822 113.473 204.208 113.473 200.429Z" fill="black"/>
<path d="M1147.53 157.386C1147.2 159.85 1146.87 162.315 1146.54 164.943C1143.43 189.75 1123.75 209.3 1098.82 211.765C1092.92 212.258 1087.02 212.586 1081.11 212.75C1065.54 212.915 1050.12 212.75 1034.54 212.75C1032.25 212.75 1031.26 213.408 1030.77 215.708C1028.48 227.208 1026.02 238.872 1023.72 250.372C1023.23 252.508 1022.57 253.329 1020.28 253.329C1004.86 253.165 989.45 253.329 973.872 253.329C973.052 253.329 972.232 253.165 971.248 253.165C971.412 252.015 971.412 251.029 971.74 250.043C978.955 215.05 986.17 180.222 993.385 145.229C994.697 138.493 996.337 131.922 997.485 125.186C997.977 122.558 998.961 121.736 1001.58 121.736C1017 121.9 1032.25 121.736 1047.66 121.736C1066.68 121.736 1085.54 121.572 1104.56 121.736C1112.27 121.736 1120.14 122.393 1127.68 125.022C1139.16 129.129 1146.21 136.686 1147.36 149.172C1147.36 149.665 1147.69 150.158 1147.69 150.65C1147.53 152.786 1147.53 155.086 1147.53 157.386ZM1056.85 180.222C1056.85 180.058 1056.85 179.893 1056.85 179.893C1063.4 179.893 1069.96 180.222 1076.52 179.893C1087.35 179.4 1091.61 172.665 1092.26 162.479C1092.43 158.372 1090.79 155.908 1086.85 154.593C1084.39 153.772 1081.77 153.279 1079.31 153.115C1068.32 152.95 1057.17 153.115 1046.19 152.95C1044.38 152.95 1043.56 153.608 1043.23 155.415C1041.76 162.808 1040.28 170.2 1038.64 177.758C1038.15 179.729 1038.81 180.386 1040.78 180.386C1046.02 180.222 1051.43 180.222 1056.85 180.222Z" fill="black"/>
<path d="M913.692 116.315C915.824 116.643 917.792 117.136 919.923 117.3C928.942 117.958 937.797 118.943 946.324 122.229C955.179 125.679 962.722 130.936 966.821 139.972C969.281 145.229 970.429 150.979 969.445 156.893C967.641 167.736 965.674 178.415 963.706 189.258C962.394 196.815 961.082 204.372 959.606 211.765C957.803 220.636 955.835 229.508 954.031 238.215C953.211 242.158 952.391 245.936 951.735 249.879C951.407 252.343 950.26 253.165 947.8 253.165C932.55 253 917.3 253.165 901.886 253.165C898.934 253.165 898.442 252.508 899.098 249.55C903.689 227.7 908.117 205.85 912.708 184C913.856 178.743 913.692 178.743 919.103 178.743C925.007 178.743 930.746 178.908 936.649 179.072C936.977 179.072 937.305 178.908 938.125 178.743C935.665 176.279 933.37 174.143 931.074 172.172C925.991 167.408 920.743 162.808 915.66 158.043C909.101 152.129 902.706 146.05 896.146 139.972C894.671 138.658 893.523 138.165 891.719 139.479C877.125 149.993 862.531 160.508 847.936 171.022C845.149 172.993 842.525 174.965 839.737 176.772C839.082 177.265 838.426 177.758 837.442 178.743C838.59 178.908 839.082 179.072 839.574 179.072C845.805 178.908 852.036 178.743 858.267 178.743C861.055 178.743 861.547 179.072 860.891 181.865C859.579 188.6 858.103 195.336 856.791 202.236C854.988 211.108 853.184 219.979 851.216 228.686C849.74 235.915 848.264 242.979 846.789 250.208C846.297 252.179 845.313 253 843.181 253C827.767 253 812.353 253 796.775 253C794.151 253 793.659 252.672 794.315 250.043C796.775 237.722 799.399 225.565 802.022 213.243C803.826 204.7 805.302 196.158 807.27 187.615C809.401 178.086 811.205 168.393 814.157 159.029C819.732 141.286 831.867 129.622 849.084 123.215C857.447 120.093 866.302 118.615 875.157 117.629C879.257 117.136 883.52 116.643 887.619 116.15C896.474 116.315 905.165 116.315 913.692 116.315Z" fill="black"/>
<path d="M368.297 171.35C369.773 171.35 370.757 171.514 371.904 171.514C396.501 171.514 421.098 171.514 445.531 171.514C449.467 171.514 449.467 171.514 448.647 175.293C446.843 183.672 445.039 192.214 443.399 200.593C442.907 203.057 441.923 203.714 439.464 203.714C414.703 203.714 389.942 203.714 365.017 203.714C361.41 203.714 361.41 203.714 360.59 207.329C359.77 211.6 358.786 215.872 357.802 220.636C359.114 220.8 360.262 220.8 361.41 220.8C387.81 220.8 414.211 220.8 440.776 220.8C445.367 220.8 445.367 220.8 444.383 225.4C442.907 232.464 441.432 239.693 440.284 246.922C442.743 242.979 445.367 239.036 447.827 235.093C465.045 207.822 482.262 180.55 499.48 153.279C505.711 143.586 511.943 133.729 518.01 123.872C519.158 122.064 520.47 121.407 522.601 121.407C541.787 121.407 560.972 121.407 580.158 121.407C582.454 121.407 583.438 122.229 583.929 124.529C590.653 155.579 597.376 186.629 604.263 217.679C606.559 228.357 609.018 239.2 611.314 249.879C611.97 252.836 611.642 253 608.854 253C592.456 253 576.058 253 559.497 253C557.365 253 556.381 252.343 556.217 250.207C555.725 246.757 555.069 243.472 554.741 240.022C554.577 238.379 553.757 237.886 552.118 237.886C535.72 237.886 519.322 237.886 502.76 238.05C501.776 238.05 500.3 239.036 499.808 239.857C497.512 243.472 495.381 247.25 493.249 251.029C492.429 252.507 491.281 253.164 489.641 253C489.15 253 488.658 253 488.166 253C426.673 253 365.017 253 303.525 253C303.197 253 302.705 253 302.377 253C299.59 253 299.426 252.836 299.917 250.043C301.721 241.171 303.689 232.136 305.493 223.264C312.216 190.407 319.103 157.714 325.826 124.857C326.482 121.407 326.482 121.407 330.09 121.407C374.2 121.407 418.31 121.407 462.257 121.407C465.864 121.407 465.864 121.407 465.209 124.857C463.405 133.4 461.601 142.107 459.961 150.65C459.469 152.95 458.485 153.607 456.19 153.607C429.297 153.607 402.404 153.607 375.512 153.607C371.904 153.607 371.904 153.607 371.248 157.057C370.265 161.986 369.445 166.422 368.297 171.35ZM543.427 162.643C543.263 162.643 543.099 162.643 542.771 162.479C534.9 176.772 527.029 190.9 518.994 205.522C520.306 205.686 521.125 205.686 521.781 205.686C529.98 205.686 538.015 205.686 546.214 205.686C549.166 205.686 549.33 205.357 549.002 202.4C547.854 194.679 546.87 186.957 545.722 179.236C545.066 173.814 544.247 168.229 543.427 162.643Z" fill="black"/>
<path d="M769.718 188.601C779.065 192.872 780.869 200.265 779.885 208.808C778.737 218.665 777.589 228.687 776.442 238.544C775.95 242.651 776.442 246.758 778.245 250.537C778.573 251.194 778.901 252.015 779.229 253.001C778.245 253.001 777.425 253.165 776.606 253.165C759.716 253.165 742.826 253.165 725.936 253.165C722.656 253.165 722.164 253.001 722.492 249.715C723.148 242.158 724.296 234.601 725.116 226.879C725.116 226.715 725.28 226.387 725.28 226.222C726.592 217.022 722.82 212.587 713.474 212.587C703.143 212.587 692.648 212.587 682.318 212.587C678.546 212.587 678.546 212.587 677.726 216.365C675.43 227.701 673.135 239.037 670.839 250.372C670.347 252.508 669.527 253.165 667.395 253.165C651.981 253.165 636.731 253.165 621.317 253.165C618.53 253.165 618.202 252.837 618.858 250.208C624.925 220.801 630.992 191.394 637.059 161.987C639.683 149.665 642.143 137.344 644.602 124.858C645.094 122.558 645.914 121.572 648.374 121.572C684.449 121.572 720.361 121.572 756.436 121.737C762.995 121.737 769.554 122.558 775.95 123.708C791.856 126.665 797.267 140.958 796.283 153.444C795.463 164.122 791.2 172.994 783.821 180.551C780.213 184.494 775.622 186.958 769.718 188.601ZM685.761 179.072C686.581 179.237 687.073 179.237 687.401 179.237C699.863 179.237 712.49 179.401 724.952 179.237C732.495 179.072 737.087 174.965 738.726 167.572C740.366 160.015 737.087 155.579 729.38 155.415C717.245 155.251 705.111 155.415 692.976 155.415C691.172 155.415 690.352 156.072 690.024 157.879C689.369 161.329 688.549 164.779 687.893 168.229C687.237 171.679 686.417 175.294 685.761 179.072Z" fill="black"/>
</svg>
